<?xml version="1.0" encoding="UTF-8"?>
<svg id="Layer_2" data-name="Layer 2" xmlns="http://www.w3.org/2000/svg" viewBox="0 0 200.94 151">
  <defs>
    <style>
      .cls-1 {
        fill: none;
        stroke: #d8d1c6;
        stroke-linecap: round;
        stroke-linejoin: round;
      }
    </style>
  </defs>
  <g id="Layer_1-2" data-name="Layer 1">
    <g>
      <path class="cls-1" d="M53.46,25.65c25.18,1.67,45.34,21.92,46.91,46.8,1.54,24.35-15.14,46.62-39.23,52.04"/>
      <path class="cls-1" d="M175.47,75.33c-.05,4.63.49,12.96,4.86,22.05,6.1,12.7,15.95,19.18,20.03,21.56"/>
      <line class="cls-1" x1="25.47" y1="125.53" x2="41.11" y2="125.53"/>
      <path class="cls-1" d="M121.44,100.38c-2.4,6.69-7.72,18.64-19.2,29.48-3.04,2.88-11.77,10.63-25.5,15.84-7.54,2.86-14.26,4.07-19.17,4.62"/>
      <path class="cls-1" d="M56.5.68c1.42.12,3.38.32,5.71.69,10.31,1.64,17.83,5,20.54,6.28,8.74,4.14,15.12,9.3,19.32,13.32"/>
      <line class="cls-1" x1="100.56" y1=".5" x2="100.56" y2="19.42"/>
      <line class="cls-1" x1="175.47" y1=".68" x2="175.47" y2="75.5"/>
      <line class="cls-1" x1="121.17" y1="100.38" x2="154.72" y2="100.38"/>
      <path class="cls-1" d="M154.55,100.3c2.17,6.2,7.02,17.48,17.6,28.14,10.66,10.74,22,15.68,28.2,17.88"/>
      <line class="cls-1" x1=".5" y1=".68" x2="200.44" y2=".68"/>
      <line class="cls-1" x1=".5" y1="150.32" x2="200.44" y2="150.32"/>
      <line class="cls-1" x1="200.27" y1=".68" x2="200.27" y2="119.08"/>
      <line class="cls-1" x1="125.53" y1="42.9" x2="125.53" y2="75.41"/>
      <line class="cls-1" x1="25.3" y1="25.65" x2="53.63" y2="25.65"/>
      <line class="cls-1" x1="150.5" y1="25.47" x2="150.5" y2="75.41"/>
      <line class="cls-1" x1="175.47" y1="75.33" x2="125.36" y2="75.33"/>
      <line class="cls-1" x1="125.53" y1="25.47" x2="141.13" y2="25.47"/>
      <line class="cls-1" x1="200.27" y1="150.5" x2="200.27" y2="146.15"/>
      <line class="cls-1" x1=".5" y1="150.5" x2=".5" y2="25.65"/>
      <line class="cls-1" x1="25.47" y1="25.65" x2="25.47" y2="125.7"/>
    </g>
  </g>
</svg>